<svg xmlns="http://www.w3.org/2000/svg" xmlns:xlink="http://www.w3.org/1999/xlink" viewBox="0 0 600 600" width="600" height="600" preserveAspectRatio="xMidYMid meet" style="width: 100%; height: 100%; transform: translate3d(0px, 0px, 0px); content-visibility: visible;"><defs><clipPath id="__lottie_element_874"><rect width="600" height="600" x="0" y="0"></rect></clipPath><linearGradient id="__lottie_element_881" spreadMethod="pad" gradientUnits="userSpaceOnUse" x1="-161.49200439453125" y1="-118.21299743652344" x2="129.5260009765625" y2="158.906005859375"><stop offset="0%" stop-color="rgb(255,255,255)"></stop><stop offset="65%" stop-color="rgb(242,242,242)"></stop><stop offset="100%" stop-color="rgb(255,255,255)"></stop></linearGradient><linearGradient id="__lottie_element_885" spreadMethod="pad" gradientUnits="userSpaceOnUse" x1="-38.715999603271484" y1="-44.68600082397461" x2="20.895000457763672" y2="14.42300033569336"><stop offset="0%" stop-color="rgb(255,248,245)"></stop><stop offset="65%" stop-color="rgb(255,255,255)"></stop><stop offset="100%" stop-color="rgb(255,255,255)"></stop></linearGradient><clipPath id="__lottie_element_890"><path d="M0,0 L600,0 L600,600 L0,600z"></path></clipPath><linearGradient id="__lottie_element_897" spreadMethod="pad" gradientUnits="userSpaceOnUse" x1="-101.88899993896484" y1="68.33999633789062" x2="166.3509979248047" y2="-117.5739974975586"><stop offset="0%" stop-color="rgb(14,118,0)"></stop><stop offset="58%" stop-color="rgb(22,145,6)"></stop><stop offset="100%" stop-color="rgb(21,177,0)"></stop></linearGradient><linearGradient id="__lottie_element_898" spreadMethod="pad" gradientUnits="userSpaceOnUse" x1="-101.88899993896484" y1="68.33999633789062" x2="166.3509979248047" y2="-117.5739974975586"><stop offset="0%" stop-color="rgb(14,118,0)"></stop><stop offset="58%" stop-color="rgb(21,154,3)"></stop><stop offset="100%" stop-color="rgb(21,177,0)"></stop></linearGradient></defs><g clip-path="url(#__lottie_element_874)"><g transform="matrix(1,0,0,1,142.92098999023438,65.08599853515625)" opacity="1" style="display: block;"><g opacity="1" transform="matrix(1,0,0,1,170.42300415039062,240.05999755859375)"><path fill="rgb(255,255,255)" fill-opacity="1" d=" M0.9449999928474426,225.6719970703125 C-71.40899658203125,207.44000244140625 -110.31800079345703,153.0679931640625 -130.41000366210938,114.12699890136719 C-155.31500244140625,65.85600280761719 -170.1739959716797,-12.95300006866455 -153.906005859375,-71.36699676513672 C-139.73300170898438,-122.23600006103516 -106.95899963378906,-170.2169952392578 -54.525001525878906,-202.92599487304688 C-12.744999885559082,-228.98699951171875 23.687000274658203,-238.18499755859375 62.55099868774414,-238.9980010986328 C101.41600036621094,-239.80999755859375 156.9709930419922,-216.79400634765625 163.57200622558594,-152.55099487304688 C170.17300415039062,-88.30899810791016 130.01699829101562,-59.047000885009766 104.35299682617188,-33.82500076293945 C67.48699951171875,2.4040000438690186 65.71199798583984,31.229999542236328 85.52799987792969,77.39800262451172 C105.34400177001953,123.56700134277344 113.53399658203125,159.49400329589844 101.68599700927734,189.59300231933594 C92.2760009765625,213.49200439453125 57.04899978637695,239.80999755859375 0.9449999928474426,225.6719970703125z"></path></g></g><g transform="matrix(1,0,0,1,3.501007080078125,84.61799621582031)" opacity="1" style="display: block;"><g opacity="1" transform="matrix(1,0,0,1,297.9989929199219,215.8000030517578)"><path fill="url(#__lottie_element_881)" fill-opacity="1" d=" M-233.3280029296875,152.4239959716797 C-175.39999389648438,199.13999938964844 -98.7020034790039,188.5469970703125 -55.36899948120117,170.45799255371094 C-12.034000396728516,152.36900329589844 38.564998626708984,141.76100158691406 89.61000061035156,178.40499877929688 C140.65499877929688,215.0500030517578 211.18499755859375,200.86399841308594 239.0709991455078,152.86000061035156 C269.2349853515625,100.93900299072266 298.5679931640625,-13.442000389099121 192.91700744628906,-108.97899627685547 C125.60399627685547,-169.8489990234375 39.97200012207031,-198.66000366210938 -29.815000534057617,-206.85499572753906 C-99.60199737548828,-215.0500030517578 -154.73899841308594,-210.2310028076172 -179.4290008544922,-176.76499938964844 C-204.11900329589844,-143.3000030517578 -178.17599487304688,-119.60900115966797 -168.3090057373047,-108.49299621582031 C-158.44400024414062,-97.37799835205078 -138.41099548339844,-62.145999908447266 -206.9550018310547,-29.233999252319336 C-288.58099365234375,9.961999893188477 -298.125,100.1709976196289 -233.3280029296875,152.4239959716797z"></path></g></g><g transform="matrix(1,0,0,1,60.310001373291016,181.7220001220703)" opacity="1" style="display: block;"><g opacity="1" transform="matrix(1,0,0,1,33.67100143432617,33.672000885009766)"><path fill="url(#__lottie_element_885)" fill-opacity="1" d=" M-0.3199999928474426,-33.422000885009766 C6.22599983215332,-33.422000885009766 12.62600040435791,-31.481000900268555 18.069000244140625,-27.8439998626709 C23.51300048828125,-24.20599937438965 27.7549991607666,-19.03499984741211 30.260000228881836,-12.987000465393066 C32.76499938964844,-6.939000129699707 33.422000885009766,-0.28299999237060547 32.14500045776367,6.13700008392334 C30.867000579833984,12.557999610900879 27.71500015258789,18.457000732421875 23.086000442504883,23.084999084472656 C18.45599937438965,27.71500015258789 12.557999610900879,30.867000579833984 6.138000011444092,32.143001556396484 C-0.28299999237060547,33.42100143432617 -6.940000057220459,32.76599884033203 -12.98799991607666,30.260000228881836 C-19.03700065612793,27.7549991607666 -24.204999923706055,23.51300048828125 -27.841999053955078,18.06999969482422 C-31.479999542236328,12.62600040435791 -33.42100143432617,6.2270002365112305 -33.42100143432617,-0.3199999928474426 C-33.42100143432617,-9.098999977111816 -29.934999465942383,-17.518999099731445 -23.726999282836914,-23.726999282836914 C-17.518999099731445,-29.93400001525879 -9.098999977111816,-33.422000885009766 -0.3199999928474426,-33.422000885009766z"></path></g></g><g transform="matrix(1,0,0,1,524.0999755859375,175.03799438476562)" opacity="1" style="display: block;"><g opacity="1" transform="matrix(1,0,0,1,12.980999946594238,12.980999946594238)"><path fill="rgb(255,255,255)" fill-opacity="1" d=" M0,12.730999946594238 C7.031000137329102,12.730999946594238 12.730999946594238,7.031000137329102 12.730999946594238,0 C12.730999946594238,-7.031000137329102 7.031000137329102,-12.730999946594238 0,-12.730999946594238 C-7.031000137329102,-12.730999946594238 -12.730999946594238,-7.031000137329102 -12.730999946594238,0 C-12.730999946594238,7.031000137329102 -7.031000137329102,12.730999946594238 0,12.730999946594238z"></path></g></g><g clip-path="url(#__lottie_element_890)" transform="matrix(0.8500000238418579,0,0,0.8500000238418579,43,49)" opacity="1" style="display: block;"><g transform="matrix(1,0,0,1,130.43898010253906,192.60598754882812)" opacity="1" style="display: block;"><g opacity="1" transform="matrix(1,0,0,1,193.34500122070312,135.9040069580078)"><path fill="rgb(7,64,0)" fill-opacity="1" d=" M-56.93000030517578,-114.38600158691406 C-56.93000030517578,-114.38600158691406 -59.2400016784668,-120.83399963378906 -59.2400016784668,-120.83399963378906 C-62.51499938964844,-129.97500610351562 -71.6969985961914,-135.6529998779297 -81.38099670410156,-134.52499389648438 C-81.38099670410156,-134.52499389648438 -173.3990020751953,-123.81199645996094 -173.3990020751953,-123.81199645996094 C-184.8769989013672,-122.47599792480469 -193.09500122070312,-112.13099670410156 -191.7519989013672,-100.7040023803711 C-191.7519989013672,-100.7040023803711 -165.56100463867188,122.20899963378906 -165.56100463867188,122.20899963378906 C-164.63999938964844,130.0449981689453 -157.51300048828125,135.6529998779297 -149.63999938964844,134.73599243164062 C-149.63999938964844,134.73599243164062 179.58900451660156,96.40699768066406 179.58900451660156,96.40699768066406 C187.46099853515625,95.48999786376953 193.09500122070312,88.3949966430664 192.1739959716797,80.55899810791016 C192.1739959716797,80.55899810791016 169.5330047607422,-112.13999938964844 169.5330047607422,-112.13999938964844 C168.61199951171875,-119.97599792480469 161.48500061035156,-125.58499908447266 153.61300659179688,-124.66899871826172 C153.61300659179688,-124.66899871826172 -37.566001892089844,-102.41100311279297 -37.566001892089844,-102.41100311279297 C-46.03499984741211,-101.42500305175781 -54.066001892089844,-106.39099884033203 -56.93000030517578,-114.38600158691406z"></path></g></g><g transform="matrix(1,0,0,1,171.77398681640625,122.2291259765625)" opacity="1" style="display: block;"><g opacity="1" transform="matrix(1,0,0,1,66.54399871826172,81.89900207519531)"><path fill="rgb(21,176,0)" fill-opacity="1" d=" M66.29399871826172,61.012001037597656 C66.29399871826172,61.012001037597656 -37.731998443603516,81.64900207519531 -37.731998443603516,81.64900207519531 C-37.731998443603516,81.64900207519531 -66.29399871826172,-61.012001037597656 -66.29399871826172,-61.012001037597656 C-66.29399871826172,-61.012001037597656 37.731998443603516,-81.64900207519531 37.731998443603516,-81.64900207519531 C37.731998443603516,-81.64900207519531 66.29399871826172,61.012001037597656 66.29399871826172,61.012001037597656z"></path></g><g opacity="1" transform="matrix(1,0,0,1,66.54399871826172,81.89900207519531)"><path fill="rgb(21,176,0)" fill-opacity="1" d=" M66.29399871826172,61.012001037597656 C66.29399871826172,61.012001037597656 -37.731998443603516,81.64900207519531 -37.731998443603516,81.64900207519531 C-37.731998443603516,81.64900207519531 -66.29399871826172,-61.012001037597656 -66.29399871826172,-61.012001037597656 C-66.29399871826172,-61.012001037597656 37.731998443603516,-81.64900207519531 37.731998443603516,-81.64900207519531 C37.731998443603516,-81.64900207519531 66.29399871826172,61.012001037597656 66.29399871826172,61.012001037597656z"></path></g></g><g transform="matrix(1,0,0,1,191.21798706054688,145.50112915039062)" opacity="1" style="display: block;"><g opacity="1" transform="matrix(1,0,0,1,38.03200149536133,12.321000099182129)"><path fill="rgb(255,255,255)" fill-opacity="1" d=" M32.90700149536133,-1.0080000162124634 C32.90700149536133,-1.0080000162124634 -31.17300033569336,11.704000473022461 -31.17300033569336,11.704000473022461 C-34.28099822998047,12.321000099182129 -37.30099868774414,10.312999725341797 -37.92100143432617,7.21999979019165 C-38.540000915527344,4.126999855041504 -36.52299880981445,1.11899995803833 -33.41600036621094,0.503000020980835 C-33.41600036621094,0.503000020980835 30.663999557495117,-12.210000038146973 30.663999557495117,-12.210000038146973 C33.77199935913086,-12.826000213623047 36.792999267578125,-10.819000244140625 37.4119987487793,-7.724999904632568 C38.03200149536133,-4.631999969482422 36.013999938964844,-1.625 32.90700149536133,-1.0080000162124634z"></path></g><g opacity="1" transform="matrix(1,0,0,1,42.500999450683594,35.65800094604492)"><path fill="rgb(255,255,255)" fill-opacity="1" d=" M33.1609992980957,-0.7559999823570251 C33.1609992980957,-0.7559999823570251 -30.91900062561035,11.956000328063965 -30.91900062561035,11.956000328063965 C-34.0260009765625,12.572999954223633 -37.047000885009766,10.565999984741211 -37.66699981689453,7.4730000495910645 C-38.2859992980957,4.379000186920166 -36.26900100708008,1.371999979019165 -33.1609992980957,0.7559999823570251 C-33.1609992980957,0.7559999823570251 30.917999267578125,-11.958000183105469 30.917999267578125,-11.958000183105469 C34.0260009765625,-12.574000358581543 37.047000885009766,-10.565999984741211 37.66600036621094,-7.4720001220703125 C38.2859992980957,-4.379000186920166 36.268001556396484,-1.3730000257492065 33.1609992980957,-0.7559999823570251z"></path></g><g opacity="1" transform="matrix(1,0,0,1,47.2239990234375,59.24599838256836)"><path fill="rgb(255,255,255)" fill-opacity="1" d=" M33.1609992980957,-0.7559999823570251 C33.1609992980957,-0.7559999823570251 -30.91900062561035,11.956000328063965 -30.91900062561035,11.956000328063965 C-34.027000427246094,12.572999954223633 -37.047000885009766,10.565999984741211 -37.66699981689453,7.4730000495910645 C-38.2859992980957,4.380000114440918 -36.26900100708008,1.371999979019165 -33.1619987487793,0.7559999823570251 C-33.1619987487793,0.7559999823570251 30.917999267578125,-11.958000183105469 30.917999267578125,-11.958000183105469 C34.0260009765625,-12.574000358581543 37.047000885009766,-10.565999984741211 37.66600036621094,-7.4720001220703125 C38.2859992980957,-4.379000186920166 36.268001556396484,-1.3730000257492065 33.1609992980957,-0.7559999823570251z"></path></g><g opacity="1" transform="matrix(1,0,0,1,51.69300079345703,82.83499908447266)"><path fill="rgb(255,255,255)" fill-opacity="1" d=" M33.415000915527344,-0.7559999823570251 C33.415000915527344,-0.7559999823570251 -30.665000915527344,11.958000183105469 -30.665000915527344,11.958000183105469 C-33.77199935913086,12.574000358581543 -36.792999267578125,10.5649995803833 -37.41299819946289,7.4730000495910645 C-37.41299819946289,7.4730000495910645 -37.41299819946289,7.4730000495910645 -37.41299819946289,7.4730000495910645 C-38.03200149536133,4.380000114440918 -36.01499938964844,1.371999979019165 -32.90800094604492,0.7559999823570251 C-32.90800094604492,0.7559999823570251 31.172000885009766,-11.956000328063965 31.172000885009766,-11.956000328063965 C34.279998779296875,-12.572999954223633 37.30099868774414,-10.5649995803833 37.91999816894531,-7.4720001220703125 C38.540000915527344,-4.379000186920166 36.52199935913086,-1.371999979019165 33.415000915527344,-0.7559999823570251z"></path></g><g opacity="1" transform="matrix(1,0,0,1,47.91299819946289,107.90899658203125)"><path fill="rgb(255,255,255)" fill-opacity="1" d=" M24.405000686645508,1.2339999675750732 C24.405000686645508,1.2339999675750732 -22.16200065612793,10.472000122070312 -22.16200065612793,10.472000122070312 C-25.270000457763672,11.088000297546387 -28.291000366210938,9.081000328063965 -28.90999984741211,5.986999988555908 C-29.530000686645508,2.8940000534057617 -27.51300048828125,-0.11299999803304672 -24.405000686645508,-0.7300000190734863 C-24.405000686645508,-0.7300000190734863 22.160999298095703,-9.968000411987305 22.160999298095703,-9.968000411987305 C25.268999099731445,-10.583999633789062 28.290000915527344,-8.57699966430664 28.909000396728516,-5.482999801635742 C29.52899932861328,-2.390000104904175 27.51300048828125,0.6169999837875366 24.405000686645508,1.2339999675750732z"></path></g></g><g transform="matrix(1,0,0,1,318.9320068359375,93.87930297851562)" opacity="1" style="display: block;"><g opacity="1" transform="matrix(1,0,0,1,62.70399856567383,79.47100067138672)"><path fill="rgb(21,176,0)" fill-opacity="1" d=" M62.45399856567383,64.9020004272461 C62.45399856567383,64.9020004272461 -42.638999938964844,79.22100067138672 -42.638999938964844,79.22100067138672 C-42.638999938964844,79.22100067138672 -62.45399856567383,-64.90299987792969 -62.45399856567383,-64.90299987792969 C-62.45399856567383,-64.90299987792969 42.63800048828125,-79.22100067138672 42.63800048828125,-79.22100067138672 C42.63800048828125,-79.22100067138672 62.45399856567383,64.9020004272461 62.45399856567383,64.9020004272461z"></path></g><g opacity="1" transform="matrix(1,0,0,1,62.70399856567383,79.47100067138672)"><path fill="rgb(21,176,0)" fill-opacity="1" d=" M62.45399856567383,64.90299987792969 C62.45399856567383,64.90299987792969 -42.638999938964844,79.22100067138672 -42.638999938964844,79.22100067138672 C-42.638999938964844,79.22100067138672 -62.45399856567383,-64.9020004272461 -62.45399856567383,-64.9020004272461 C-62.45399856567383,-64.9020004272461 42.63800048828125,-79.22000122070312 42.63800048828125,-79.22000122070312 C42.63800048828125,-79.22000122070312 62.45399856567383,64.90299987792969 62.45399856567383,64.90299987792969z"></path></g></g><g transform="matrix(1,0,0,1,337.06201171875,116.19230651855469)" opacity="1" style="display: block;"><g opacity="1" transform="matrix(1,0,0,1,38.29399871826172,10.309000015258789)"><path fill="rgb(255,255,255)" fill-opacity="1" d=" M32.95800018310547,1.062000036239624 C32.95800018310547,1.062000036239624 -31.777999877929688,9.880999565124512 -31.777999877929688,9.880999565124512 C-34.917999267578125,10.309000015258789 -37.8120002746582,8.123000144958496 -38.24100112915039,4.998000144958496 C-38.66999816894531,1.8730000257492065 -36.4739990234375,-1.0069999694824219 -33.33399963378906,-1.434999942779541 C-33.33399963378906,-1.434999942779541 31.402000427246094,-10.255000114440918 31.402000427246094,-10.255000114440918 C34.54100036621094,-10.682000160217285 37.435001373291016,-8.496000289916992 37.86399841308594,-5.370999813079834 C38.29399871826172,-2.246000051498413 36.097999572753906,0.6340000033378601 32.95800018310547,1.062000036239624z"></path></g><g opacity="1" transform="matrix(1,0,0,1,41.382999420166016,33.95199966430664)"><path fill="rgb(255,255,255)" fill-opacity="1" d=" M33.145999908447266,1.2480000257492065 C33.145999908447266,1.2480000257492065 -31.59000015258789,10.067999839782715 -31.59000015258789,10.067999839782715 C-34.72999954223633,10.494999885559082 -37.62300109863281,8.309000015258789 -38.051998138427734,5.184000015258789 C-38.481998443603516,2.059000015258789 -36.2859992980957,-0.8199999928474426 -33.145999908447266,-1.2480000257492065 C-33.145999908447266,-1.2480000257492065 31.59000015258789,-10.067000389099121 31.59000015258789,-10.067000389099121 C34.72999954223633,-10.494999885559082 37.62300109863281,-8.309000015258789 38.051998138427734,-5.184000015258789 C38.481998443603516,-2.059000015258789 36.2859992980957,0.8209999799728394 33.145999908447266,1.2480000257492065z"></path></g><g opacity="1" transform="matrix(1,0,0,1,21.209999084472656,60.97800064086914)"><path fill="rgb(255,255,255)" fill-opacity="1" d=" M9.696999549865723,4.442999839782715 C9.696999549865723,4.442999839782715 -8.142000198364258,6.873000144958496 -8.142000198364258,6.873000144958496 C-11.281000137329102,7.301000118255615 -14.173999786376953,5.113999843597412 -14.604000091552734,1.9889999628067017 C-15.032999992370605,-1.1360000371932983 -12.836999893188477,-4.014999866485596 -9.697999954223633,-4.442999839782715 C-9.697999954223633,-4.442999839782715 8.140000343322754,-6.873000144958496 8.140000343322754,-6.873000144958496 C11.279000282287598,-7.301000118255615 14.17300033569336,-5.114999771118164 14.60200023651123,-1.9900000095367432 C14.60200023651123,-1.9900000095367432 14.60200023651123,-1.9889999628067017 14.60200023651123,-1.9889999628067017 C15.031999588012695,1.1349999904632568 12.836999893188477,4.014999866485596 9.696999549865723,4.442999839782715z"></path></g><g opacity="1" transform="matrix(1,0,0,1,55.79899978637695,56.26499938964844)"><path fill="rgb(255,255,255)" fill-opacity="1" d=" M9.696999549865723,4.442999839782715 C9.696999549865723,4.442999839782715 -8.140999794006348,6.873000144958496 -8.140999794006348,6.873000144958496 C-11.281000137329102,7.301000118255615 -14.173999786376953,5.113999843597412 -14.604000091552734,1.9889999628067017 C-15.032999992370605,-1.1349999904632568 -12.836000442504883,-4.014999866485596 -9.697999954223633,-4.442999839782715 C-9.697999954223633,-4.442999839782715 8.140000343322754,-6.873000144958496 8.140000343322754,-6.873000144958496 C11.279999732971191,-7.301000118255615 14.173999786376953,-5.114999771118164 14.602999687194824,-1.9900000095367432 C15.031999588012695,1.1349999904632568 12.836999893188477,4.015999794006348 9.696999549865723,4.442999839782715z"></path></g><g opacity="1" transform="matrix(1,0,0,1,47.74800109863281,81.61399841308594)"><path fill="rgb(255,255,255)" fill-opacity="1" d=" M33.334999084472656,1.2480000257492065 C33.334999084472656,1.2480000257492065 -31.402000427246094,10.067999839782715 -31.402000427246094,10.067999839782715 C-34.54100036621094,10.496000289916992 -37.435001373291016,8.309000015258789 -37.86399841308594,5.184000015258789 C-38.29399871826172,2.059000015258789 -36.097999572753906,-0.8209999799728394 -32.95800018310547,-1.2489999532699585 C-32.95800018310547,-1.2489999532699585 31.777999877929688,-10.067999839782715 31.777999877929688,-10.067999839782715 C34.917999267578125,-10.496000289916992 37.8120002746582,-8.309000015258789 38.24100112915039,-5.184999942779541 C38.67100143432617,-2.059000015258789 36.4739990234375,0.8209999799728394 33.334999084472656,1.2480000257492065z"></path></g><g opacity="1" transform="matrix(1,0,0,1,42.3650016784668,106.46299743652344)"><path fill="rgb(255,255,255)" fill-opacity="1" d=" M24.301000595092773,2.6410000324249268 C24.301000595092773,2.6410000324249268 -22.743999481201172,9.050000190734863 -22.743999481201172,9.050000190734863 C-25.882999420166016,9.477999687194824 -28.775999069213867,7.290999889373779 -29.20599937438965,4.165999889373779 C-29.63599967956543,1.0410000085830688 -27.437999725341797,-1.8389999866485596 -24.299999237060547,-2.2660000324249268 C-24.299999237060547,-2.2660000324249268 22.743999481201172,-8.675999641418457 22.743999481201172,-8.675999641418457 C25.884000778198242,-9.102999687194824 28.777000427246094,-6.916999816894531 29.207000732421875,-3.7920000553131104 C29.63599967956543,-0.6669999957084656 27.440000534057617,2.2130000591278076 24.301000595092773,2.6410000324249268z"></path></g></g><g transform="matrix(1,0,0,1,219.18698120117188,114.75602722167969)" opacity="1" style="display: block;"><g opacity="1" transform="matrix(1,0,0,1,59.43000030517578,77.29199981689453)"><path fill="rgb(13,117,0)" fill-opacity="1" d=" M59.18000030517578,67.875 C59.18000030517578,67.875 -46.492000579833984,77.04199981689453 -46.492000579833984,77.04199981689453 C-46.492000579833984,77.04199981689453 -59.18000030517578,-67.875 -59.18000030517578,-67.875 C-59.18000030517578,-67.875 46.492000579833984,-77.04199981689453 46.492000579833984,-77.04199981689453 C46.492000579833984,-77.04199981689453 59.18000030517578,67.875 59.18000030517578,67.875z"></path></g><g opacity="1" transform="matrix(1,0,0,1,59.43000030517578,77.29199981689453)"><path fill="rgb(13,117,0)" fill-opacity="1" d=" M59.18000030517578,67.875 C59.18000030517578,67.875 -46.492000579833984,77.04199981689453 -46.492000579833984,77.04199981689453 C-46.492000579833984,77.04199981689453 -59.18000030517578,-67.875 -59.18000030517578,-67.875 C-59.18000030517578,-67.875 46.492000579833984,-77.04199981689453 46.492000579833984,-77.04199981689453 C46.492000579833984,-77.04199981689453 59.18000030517578,67.875 59.18000030517578,67.875z"></path></g></g><g transform="matrix(1,0,0,1,236.19097900390625,136.21702575683594)" opacity="1" style="display: block;"><g opacity="1" transform="matrix(1,0,0,1,38.4109992980957,8.66100025177002)"><path fill="rgb(255,255,255)" fill-opacity="1" d=" M32.91899871826172,2.740000009536743 C32.91899871826172,2.740000009536743 -32.17399978637695,8.38700008392334 -32.17399978637695,8.38700008392334 C-35.33100128173828,8.66100025177002 -38.112998962402344,6.335999965667725 -38.38800048828125,3.194000005722046 C-38.66299819946289,0.052000001072883606 -36.32699966430664,-2.7179999351501465 -33.16999816894531,-2.992000102996826 C-33.16999816894531,-2.992000102996826 31.92300033569336,-8.638999938964844 31.92300033569336,-8.638999938964844 C35.07899856567383,-8.913000106811523 37.861000061035156,-6.5879998207092285 38.137001037597656,-3.446000099182129 C38.4109992980957,-0.30300000309944153 36.07500076293945,2.4660000801086426 32.91899871826172,2.740000009536743z"></path></g><g opacity="1" transform="matrix(1,0,0,1,40.382999420166016,32.49700164794922)"><path fill="rgb(255,255,255)" fill-opacity="1" d=" M33.04499816894531,2.865000009536743 C33.04499816894531,2.865000009536743 -32.04800033569336,8.51200008392334 -32.04800033569336,8.51200008392334 C-35.20500183105469,8.78600025177002 -37.98699951171875,6.460999965667725 -38.262001037597656,3.319000005722046 C-38.5369987487793,0.1770000010728836 -36.20100021362305,-2.5929999351501465 -33.04399871826172,-2.865999937057495 C-33.04399871826172,-2.865999937057495 32.04899978637695,-8.513999938964844 32.04899978637695,-8.513999938964844 C35.20600128173828,-8.786999702453613 37.986000061035156,-6.4629998207092285 38.262001037597656,-3.319999933242798 C38.5369987487793,-0.17800000309944153 36.20199966430664,2.5910000801086426 33.04499816894531,2.865000009536743z"></path></g><g opacity="1" transform="matrix(1,0,0,1,42.47999954223633,56.45899963378906)"><path fill="rgb(255,255,255)" fill-opacity="1" d=" M33.04600143432617,2.865999937057495 C33.04600143432617,2.865999937057495 -32.04800033569336,8.512999534606934 -32.04800033569336,8.512999534606934 C-35.20399856567383,8.786999702453613 -37.986000061035156,6.461999893188477 -38.26100158691406,3.319999933242798 C-38.5369987487793,0.17800000309944153 -36.20100021362305,-2.5920000076293945 -33.04399871826172,-2.865999937057495 C-33.04399871826172,-2.865999937057495 32.04999923706055,-8.512999534606934 32.04999923706055,-8.512999534606934 C35.20600128173828,-8.786999702453613 37.987998962402344,-6.461999893188477 38.263999938964844,-3.319999933242798 C38.53799819946289,-0.1770000010728836 36.20199966430664,2.5920000076293945 33.04600143432617,2.865999937057495z"></path></g><g opacity="1" transform="matrix(1,0,0,1,44.45199966430664,80.4209976196289)"><path fill="rgb(255,255,255)" fill-opacity="1" d=" M33.17100143432617,2.865999937057495 C33.17100143432617,2.865999937057495 -31.922000885009766,8.512999534606934 -31.922000885009766,8.512999534606934 C-35.07899856567383,8.786999702453613 -37.861000061035156,6.461999893188477 -38.13600158691406,3.319999933242798 C-38.4109992980957,0.17800000309944153 -36.07500076293945,-2.5920000076293945 -32.917999267578125,-2.865000009536743 C-32.917999267578125,-2.865000009536743 32.17499923706055,-8.512999534606934 32.17499923706055,-8.512999534606934 C35.33100128173828,-8.786999702453613 38.112998962402344,-6.460999965667725 38.388999938964844,-3.319000005722046 C38.66400146484375,-0.1770000010728836 36.327999114990234,2.5920000076293945 33.17100143432617,2.865999937057495z"></path></g><g opacity="1" transform="matrix(1,0,0,1,37.78200149536133,105.02899932861328)"><path fill="rgb(255,255,255)" fill-opacity="1" d=" M24.149999618530273,3.763000011444092 C24.149999618530273,3.763000011444092 -23.15399932861328,7.867000102996826 -23.15399932861328,7.867000102996826 C-26.31100082397461,8.140000343322754 -29.091999053955078,5.815000057220459 -29.367000579833984,2.6730000972747803 C-29.642000198364258,-0.4690000116825104 -27.30699920654297,-3.23799991607666 -24.149999618530273,-3.51200008392334 C-24.149999618530273,-3.51200008392334 23.152999877929688,-7.616000175476074 23.152999877929688,-7.616000175476074 C26.309999465942383,-7.889999866485596 29.091999053955078,-5.565000057220459 29.367000579833984,-2.4230000972747803 C29.64299964904785,0.7200000286102295 27.30699920654297,3.489000082015991 24.149999618530273,3.763000011444092z"></path></g></g><g transform="matrix(1,0,0,1,367.3219909667969,123.32321166992188)" opacity="1" style="display: block;"><g opacity="1" transform="matrix(1,0,0,1,56.74700164794922,75.44400024414062)"><path fill="rgb(13,117,0)" fill-opacity="1" d=" M56.49800109863281,70.10299682617188 C56.49800109863281,70.10299682617188 -49.45000076293945,75.19400024414062 -49.45000076293945,75.19400024414062 C-49.45000076293945,75.19400024414062 -56.49800109863281,-70.10299682617188 -56.49800109863281,-70.10299682617188 C-56.49800109863281,-70.10299682617188 49.45000076293945,-75.19400024414062 49.45000076293945,-75.19400024414062 C49.45000076293945,-75.19400024414062 56.49800109863281,70.10299682617188 56.49800109863281,70.10299682617188z"></path></g><g opacity="1" transform="matrix(1,0,0,1,56.74700164794922,75.44400024414062)"><path fill="rgb(13,117,0)" fill-opacity="1" d=" M56.49800109863281,70.10299682617188 C56.49800109863281,70.10299682617188 -49.45000076293945,75.19400024414062 -49.45000076293945,75.19400024414062 C-49.45000076293945,75.19400024414062 -56.49700164794922,-70.10299682617188 -56.49700164794922,-70.10299682617188 C-56.49700164794922,-70.10299682617188 49.45100021362305,-75.19400024414062 49.45100021362305,-75.19400024414062 C49.45100021362305,-75.19400024414062 56.49800109863281,70.10299682617188 56.49800109863281,70.10299682617188z"></path></g></g><g transform="matrix(1,0,0,1,383.3999938964844,144.06820678710938)" opacity="1" style="display: block;"><g opacity="1" transform="matrix(1,0,0,1,38.44200134277344,7.3520002365112305)"><path fill="rgb(255,255,255)" fill-opacity="1" d=" M32.83599853515625,4.064000129699707 C32.83599853515625,4.064000129699707 -32.428001403808594,7.199999809265137 -32.428001403808594,7.199999809265137 C-35.59299850463867,7.3520002365112305 -38.28200149536133,4.921000003814697 -38.435001373291016,1.7710000276565552 C-38.5880012512207,-1.378999948501587 -36.145999908447266,-4.057000160217285 -32.98099899291992,-4.208000183105469 C-32.98099899291992,-4.208000183105469 32.28300094604492,-7.34499979019165 32.28300094604492,-7.34499979019165 C35.446998596191406,-7.497000217437744 38.137001037597656,-5.065999984741211 38.290000915527344,-1.9160000085830688 C38.44200134277344,1.2339999675750732 36.000999450683594,3.9119999408721924 32.83599853515625,4.064000129699707z"></path></g><g opacity="1" transform="matrix(1,0,0,1,39.534000396728516,31.304000854492188)"><path fill="rgb(255,255,255)" fill-opacity="1" d=" M32.909000396728516,4.136000156402588 C32.909000396728516,4.136000156402588 -32.35499954223633,7.271999835968018 -32.35499954223633,7.271999835968018 C-35.52000045776367,7.423999786376953 -38.20899963378906,4.993000030517578 -38.36199951171875,1.843000054359436 C-38.51499938964844,-1.3070000410079956 -36.073001861572266,-3.9839999675750732 -32.90800094604492,-4.135000228881836 C-32.90800094604492,-4.135000228881836 32.35599899291992,-7.2729997634887695 32.35599899291992,-7.2729997634887695 C35.520999908447266,-7.425000190734863 38.21099853515625,-4.99399995803833 38.362998962402344,-1.843999981880188 C38.51499938964844,1.305999994277954 36.07400131225586,3.9839999675750732 32.909000396728516,4.136000156402588z"></path></g><g opacity="1" transform="matrix(1,0,0,1,17.05900001525879,56.465999603271484)"><path fill="rgb(255,255,255)" fill-opacity="1" d=" M9.269000053405762,5.271999835968018 C9.269000053405762,5.271999835968018 -8.71399974822998,6.136000156402588 -8.71399974822998,6.136000156402588 C-11.878999710083008,6.289000034332275 -14.569000244140625,3.8580000400543213 -14.720999717712402,0.7080000042915344 C-14.875,-2.443000078201294 -12.432000160217285,-5.119999885559082 -9.267999649047852,-5.271999835968018 C-9.267999649047852,-5.271999835968018 8.71500015258789,-6.13700008392334 8.71500015258789,-6.13700008392334 C11.880000114440918,-6.289000034332275 14.569999694824219,-3.8580000400543213 14.722000122070312,-0.7070000171661377 C14.875,2.443000078201294 12.432999610900879,5.119999885559082 9.269000053405762,5.271999835968018z"></path></g><g opacity="1" transform="matrix(1,0,0,1,51.93000030517578,54.790000915527344)"><path fill="rgb(255,255,255)" fill-opacity="1" d=" M9.269000053405762,5.271999835968018 C9.269000053405762,5.271999835968018 -8.71399974822998,6.136000156402588 -8.71399974822998,6.136000156402588 C-11.878999710083008,6.288000106811523 -14.569000244140625,3.8580000400543213 -14.720999717712402,0.7080000042915344 C-14.875,-2.441999912261963 -12.432000160217285,-5.120999813079834 -9.267000198364258,-5.2729997634887695 C-9.267000198364258,-5.2729997634887695 8.71500015258789,-6.13700008392334 8.71500015258789,-6.13700008392334 C11.880000114440918,-6.289000034332275 14.569999694824219,-3.8580000400543213 14.722000122070312,-0.7080000042915344 C14.875,2.441999912261963 12.434000015258789,5.119999885559082 9.269000053405762,5.271999835968018z"></path></g><g opacity="1" transform="matrix(1,0,0,1,41.79100036621094,79.3550033569336)"><path fill="rgb(255,255,255)" fill-opacity="1" d=" M32.981998443603516,4.136000156402588 C32.981998443603516,4.136000156402588 -32.28300094604492,7.271999835968018 -32.28300094604492,7.271999835968018 C-35.448001861572266,7.423999786376953 -38.137001037597656,4.993000030517578 -38.28900146484375,1.843000054359436 C-38.44300079345703,-1.3070000410079956 -36,-3.984999895095825 -32.834999084472656,-4.13700008392334 C-32.834999084472656,-4.13700008392334 32.428001403808594,-7.2729997634887695 32.428001403808594,-7.2729997634887695 C35.59299850463867,-7.425000190734863 38.28300094604492,-4.99399995803833 38.435001373291016,-1.843999981880188 C38.5880012512207,1.305999994277954 36.145999908447266,3.9839999675750732 32.981998443603516,4.136000156402588z"></path></g><g opacity="1" transform="matrix(1,0,0,1,34.111000061035156,103.73600006103516)"><path fill="rgb(255,255,255)" fill-opacity="1" d=" M23.990999221801758,4.638000011444092 C23.990999221801758,4.638000011444092 -23.437000274658203,6.916999816894531 -23.437000274658203,6.916999816894531 C-26.601999282836914,7.068999767303467 -29.291000366210938,4.638000011444092 -29.444000244140625,1.4880000352859497 C-29.597000122070312,-1.6619999408721924 -27.155000686645508,-4.340000152587891 -23.98900032043457,-4.491000175476074 C-23.98900032043457,-4.491000175476074 23.437000274658203,-6.770999908447266 23.437000274658203,-6.770999908447266 C26.601999282836914,-6.922999858856201 29.29199981689453,-4.492000102996826 29.444000244140625,-1.340999960899353 C29.597000122070312,1.809000015258789 27.1560001373291,4.486000061035156 23.990999221801758,4.638000011444092z"></path></g></g><g transform="matrix(1,0,0,1,161.0869903564453,201.2119903564453)" opacity="1" style="display: block;"><g opacity="1" transform="matrix(1,0,0,1,181.9530029296875,133.177001953125)"><path fill="url(#__lottie_element_897)" fill-opacity="1" d=" M-46.80099868774414,-112.13899993896484 C-46.80099868774414,-112.13899993896484 -48.487998962402344,-118.4469985961914 -48.487998962402344,-118.4469985961914 C-50.87900161743164,-127.38899993896484 -59.435001373291016,-132.927001953125 -69.11799621582031,-131.8000030517578 C-69.11799621582031,-131.8000030517578 -161.13600158691406,-121.08599853515625 -161.13600158691406,-121.08599853515625 C-172.61500549316406,-119.75 -181.7030029296875,-109.5999984741211 -181.43600463867188,-98.41500091552734 C-181.43600463867188,-98.41500091552734 -176.21499633789062,119.78299713134766 -176.21499633789062,119.78299713134766 C-176.031005859375,127.4530029296875 -169.50100708007812,132.927001953125 -161.6300048828125,132.01100158691406 C-161.6300048828125,132.01100158691406 167.5989990234375,93.68099975585938 167.5989990234375,93.68099975585938 C175.4709930419922,92.76399993896484 181.7030029296875,85.80400085449219 181.5189971923828,78.13400268554688 C181.5189971923828,78.13400268554688 177.00599670410156,-110.48999786376953 177.00599670410156,-110.48999786376953 C176.82200622558594,-118.16000366210938 170.29400634765625,-123.63500213623047 162.4219970703125,-122.71900177001953 C162.4219970703125,-122.71900177001953 -28.757999420166016,-100.46099853515625 -28.757999420166016,-100.46099853515625 C-37.22700119018555,-99.4749984741211 -44.709999084472656,-104.31800079345703 -46.80099868774414,-112.13899993896484z"></path></g><g opacity="1" transform="matrix(1,0,0,1,181.9949951171875,133.25999450683594)"><path fill="url(#__lottie_element_898)" fill-opacity="1" d=" M-46.84299850463867,-112.22200012207031 C-46.84299850463867,-112.22200012207031 -48.529998779296875,-118.52999877929688 -48.529998779296875,-118.52999877929688 C-50.92100143432617,-127.47200012207031 -59.47700119018555,-133.00999450683594 -69.16000366210938,-131.88299560546875 C-69.16000366210938,-131.88299560546875 -161.17799377441406,-121.16899871826172 -161.17799377441406,-121.16899871826172 C-172.65699768066406,-119.83300018310547 -181.7449951171875,-109.68299865722656 -181.47799682617188,-98.49800109863281 C-181.47799682617188,-98.49800109863281 -176.2570037841797,119.69999694824219 -176.2570037841797,119.69999694824219 C-176.072998046875,127.37000274658203 -169.54299926757812,132.843994140625 -161.6719970703125,131.92799377441406 C-161.6719970703125,131.92799377441406 167.5570068359375,93.5979995727539 167.5570068359375,93.5979995727539 C175.4290008544922,92.68099975585938 181.66200256347656,85.72100067138672 181.47799682617188,78.0510025024414 C181.47799682617188,78.0510025024414 176.96499633789062,-110.572998046875 176.96499633789062,-110.572998046875 C176.781005859375,-118.24299621582031 170.2519989013672,-123.71800231933594 162.3800048828125,-122.802001953125 C162.3800048828125,-122.802001953125 -28.799999237060547,-100.54399871826172 -28.799999237060547,-100.54399871826172 C-37.26900100708008,-99.55799865722656 -44.75199890136719,-104.4010009765625 -46.84299850463867,-112.22200012207031z"></path></g></g></g></g></svg>